<?xml version="1.0" encoding="UTF-8"?>
<svg width="33px" height="24px" viewBox="0 0 33 24" version="1.1" xmlns="http://www.w3.org/2000/svg" xmlns:xlink="http://www.w3.org/1999/xlink">
    <title>5cac612d0ca8b584d1e9799f_solo copy</title>
    <g id="Page-1" stroke="none" stroke-width="1" fill="none" fill-rule="evenodd">
        <g id="HS-home-page-refresh-2020_test" transform="translate(-325.000000, -6292.000000)" fill="#03363D" fill-rule="nonzero">
            <g id="Group-10" transform="translate(293.000000, 6256.000000)">
                <g id="5cac612d0ca8b584d1e9799f_solo-copy" transform="translate(32.800000, 36.000000)">
                    <polygon id="Path" points="14.5099355 6.38245161 14.5099355 23.8575484 0.0356129032 23.8575484"></polygon>
                    <path d="M14.5099355,0.109935484 C14.5099355,4.1069093 11.269748,7.34709677 7.27277419,7.34709677 C3.27580038,7.34709677 0.0356129032,4.1069093 0.0356129032,0.109935484 L14.5099355,0.109935484 Z" id="Path"></path>
                    <polygon id="Path" points="16.8944516 17.5850323 16.8944516 0.109935484 31.3703226 0.109935484"></polygon>
                    <path d="M25.6645161,21.7858065 C25.4899725,21.7763247 25.3378234,21.9034538 25.316129,22.0769032 L25.9896774,22.0769032 C25.9796938,21.9070061 25.8344785,21.7770039 25.6645161,21.7858065 Z" id="Path"></path>
                    <path d="M24.1316129,16.6188387 C20.1343886,16.6196937 16.8944516,19.860324 16.8944516,23.8575484 L31.3687744,23.8575484 C31.3691849,21.9378656 30.6068818,20.0966675 29.2496062,18.7391016 C27.8923307,17.3815357 26.0512957,16.6188387 24.1316129,16.6188387 Z" id="Path"></path>
                </g>
            </g>
        </g>
    </g>
</svg>