<?xml version="1.0" encoding="UTF-8"?>
<svg width="35px" height="33px" viewBox="0 0 35 33" version="1.1" xmlns="http://www.w3.org/2000/svg" xmlns:xlink="http://www.w3.org/1999/xlink">
    <title>gitlab-9dd03e952192df4a1bba7d1abe03fb0de7af06dbff9d014beabd91d39e9e0861</title>
    <g id="Page-1" stroke="none" stroke-width="1" fill="none" fill-rule="evenodd">
        <g id="HS-home-page-refresh-2020_test" transform="translate(-182.000000, -6324.000000)" fill-rule="nonzero">
            <g id="Group-12" transform="translate(166.000000, 6307.000000)">
                <g id="gitlab-9dd03e952192df4a1bba7d1abe03fb0de7af06dbff9d014beabd91d39e9e0861" transform="translate(16.271429, 17.228571)">
                    <path d="M34.3930143,18.3101429 C34.5691074,18.8515067 34.3771625,19.4447205 33.9173143,19.7803143 L17.2285714,31.9044429 L0.541742857,19.7803143 C0.0815047664,19.4463108 -0.110997439,18.8537287 0.0650857143,18.3130143 L1.99277143,12.3787286 L5.81368571,0.618314286 C6.0099,0.0134 6.86654286,0.0134 7.06371429,0.618314286 L10.8827143,12.3787286 L23.5744286,12.3787286 L27.3953429,0.617357143 C27.5915571,0.0124428571 28.4482,0.0124428571 28.6453714,0.617357143 L32.4643714,12.3777714 L34.3939714,18.3111" id="Path" fill="#F36E2C"></path>
                    <polygon id="Path" fill="#E2452A" points="17.2285714 31.9044429 10.8846286 12.3777714 23.5744286 12.3777714 17.2285714 31.9034857"></polygon>
                    <polygon id="Path" fill="#F36E2C" points="17.2285714 31.9034857 1.99277143 12.3777714 10.8846286 12.3777714 17.2295286 31.9034857"></polygon>
                    <path d="M1.99277143,12.3777714 L17.2304857,31.9034857 L0.541742857,19.7793571 C0.0811519751,19.4456104 -0.111752767,18.8529792 0.0641285714,18.3120571 L1.99277143,12.3777714 L1.99277143,12.3777714 Z" id="Path" fill="#FAA328"></path>
                    <path d="M1.99372857,12.3768143 L5.81655714,0.6164 C6.01181429,0.0114857143 6.8675,0.0114857143 7.06562857,0.6164 L10.8865429,12.3768143 L1.99372857,12.3768143 Z" id="Path" fill="#E2452A"></path>
                    <polygon id="Path" fill="#F36E2C" points="17.2285714 31.9034857 32.4643714 12.3777714 23.5725143 12.3777714 17.2295286 31.9034857"></polygon>
                    <path d="M32.4653286,12.3777714 L17.2285714,31.9034857 L33.9154,19.7793571 C34.3738714,19.4443571 34.5691286,18.8509286 34.3920571,18.3120571 L32.4643714,12.3777714 L32.4653286,12.3777714 Z" id="Path" fill="#FAA328"></path>
                    <path d="M32.4662857,12.3768143 L28.6453714,0.6164 C28.4472429,0.0114857143 27.5906,0.0114857143 27.3943857,0.6164 L23.5734714,12.3768143 L32.4662857,12.3768143 Z" id="Path" fill="#E2452A"></path>
                </g>
            </g>
        </g>
    </g>
</svg>